<svg xmlns="http://www.w3.org/2000/svg" viewBox="0 0 1200 630" role="img" aria-labelledby="title desc">
  <title id="title">Rebase social card</title>
  <desc id="desc">Rebase community media social sharing image</desc>
  <defs>
    <linearGradient id="bg-gradient" x1="112" y1="72" x2="1036" y2="556" gradientUnits="userSpaceOnUse">
      <stop offset="0" stop-color="#d9f1ea" />
      <stop offset="0.48" stop-color="#fbf7ef" />
      <stop offset="1" stop-color="#ffd8b4" />
    </linearGradient>
    <linearGradient id="mark-gradient" x1="298" y1="150" x2="676" y2="494" gradientUnits="userSpaceOnUse">
      <stop offset="0" stop-color="#0f766e" />
      <stop offset="1" stop-color="#f59e0b" />
    </linearGradient>
  </defs>
  <rect width="1200" height="630" fill="#f4efe4" />
  <circle cx="168" cy="148" r="152" fill="#d9f1ea" opacity="0.76" />
  <circle cx="1044" cy="128" r="136" fill="#ffd8b4" opacity="0.78" />
  <circle cx="1046" cy="522" r="180" fill="#fffdf8" opacity="0.92" />
  <rect x="64" y="64" width="1072" height="502" rx="34" fill="url(#bg-gradient)" stroke="#1f2933" stroke-opacity="0.12" />
  <g opacity="0.32">
    <path d="M64 146H1136" stroke="#ffffff" stroke-width="2" />
    <path d="M64 228H1136" stroke="#ffffff" stroke-width="2" />
    <path d="M64 310H1136" stroke="#ffffff" stroke-width="2" />
    <path d="M64 392H1136" stroke="#ffffff" stroke-width="2" />
    <path d="M64 474H1136" stroke="#ffffff" stroke-width="2" />
    <path d="M186 64V566" stroke="#ffffff" stroke-width="2" />
    <path d="M308 64V566" stroke="#ffffff" stroke-width="2" />
    <path d="M430 64V566" stroke="#ffffff" stroke-width="2" />
    <path d="M552 64V566" stroke="#ffffff" stroke-width="2" />
    <path d="M674 64V566" stroke="#ffffff" stroke-width="2" />
    <path d="M796 64V566" stroke="#ffffff" stroke-width="2" />
    <path d="M918 64V566" stroke="#ffffff" stroke-width="2" />
    <path d="M1040 64V566" stroke="#ffffff" stroke-width="2" />
  </g>
  <rect x="118" y="118" width="134" height="134" rx="34" fill="url(#mark-gradient)" />
  <path d="M161 213V156h27.8c14.1 0 23.4 8.4 23.4 20.4 0 8.9-5.4 16-14.1 18.6l15.8 18H193l-13.9-19.9h-6.2V213h-11.9Zm11.9-32.2h10.1c5.9 0 9.6-3.2 9.6-8.2 0-5-3.7-8-9.6-8h-10.1v16.2Z" fill="#ffffff" />
  <text x="118" y="336" fill="#115e59" font-family="'Helvetica Neue', Helvetica, Arial, sans-serif" font-size="22" font-weight="700" letter-spacing="4">COMMUNITY MEDIA FOR BUILDERS</text>
  <text x="118" y="422" fill="#1f2933" font-family="'Helvetica Neue', Helvetica, Arial, sans-serif" font-size="84" font-weight="800">Rebase</text>
  <text x="118" y="500" fill="#1f2933" font-family="'Helvetica Neue', Helvetica, Arial, sans-serif" font-size="84" font-weight="800">community signals,</text>
  <text x="118" y="578" fill="#1f2933" font-family="'Helvetica Neue', Helvetica, Arial, sans-serif" font-size="84" font-weight="800">archives, and dispatches.</text>
  <text x="770" y="468" fill="#5c6b73" font-family="'Helvetica Neue', Helvetica, Arial, sans-serif" font-size="28" font-weight="600">GeekDaily / Articles / Events / Hiring</text>
</svg>
