<svg xmlns="http://www.w3.org/2000/svg" width="1600" height="2860" viewBox="0 0 1600 2860" fill="none">
  <defs>
    <linearGradient id="pageBg" x1="80" y1="60" x2="1540" y2="2780" gradientUnits="userSpaceOnUse">
      <stop offset="0" stop-color="#d9ebe5"/>
      <stop offset="0.46" stop-color="#f6f0e4"/>
      <stop offset="1" stop-color="#f7debc"/>
    </linearGradient>
    <linearGradient id="surface" x1="120" y1="140" x2="1480" y2="2740" gradientUnits="userSpaceOnUse">
      <stop offset="0" stop-color="#fcfefc"/>
      <stop offset="1" stop-color="#f7fbf8"/>
    </linearGradient>
    <radialGradient id="glowCool" cx="0" cy="0" r="1" gradientUnits="userSpaceOnUse" gradientTransform="translate(1265 350) rotate(142) scale(420 260)">
      <stop stop-color="#d8efea"/>
      <stop offset="1" stop-color="#d8efea" stop-opacity="0"/>
    </radialGradient>
    <radialGradient id="glowWarm" cx="0" cy="0" r="1" gradientUnits="userSpaceOnUse" gradientTransform="translate(1310 1870) rotate(145) scale(420 260)">
      <stop stop-color="#f7e0b1"/>
      <stop offset="1" stop-color="#f7e0b1" stop-opacity="0"/>
    </radialGradient>
    <filter id="shadow" x="84" y="96" width="1432" height="2688" filterUnits="userSpaceOnUse" color-interpolation-filters="sRGB">
      <feFlood flood-opacity="0" result="BackgroundImageFix"/>
      <feColorMatrix in="SourceAlpha" type="matrix" values="0 0 0 0 0 0 0 0 0 0 0 0 0 0 0 0 0 0 127 0" result="hardAlpha"/>
      <feOffset dy="14"/>
      <feGaussianBlur stdDeviation="18"/>
      <feColorMatrix type="matrix" values="0 0 0 0 0.12549 0 0 0 0 0.188235 0 0 0 0 0.176471 0 0 0 0.08 0"/>
      <feBlend mode="normal" in2="BackgroundImageFix" result="effect1_dropShadow"/>
      <feBlend mode="normal" in="SourceGraphic" in2="effect1_dropShadow" result="shape"/>
    </filter>
  </defs>

  <style>
    .ui {
      font-family: "Avenir Next", "Segoe UI", "PingFang SC", "Noto Sans SC", sans-serif;
      fill: #24323a;
      letter-spacing: 0;
    }

    .serif {
      font-family: "Iowan Old Style", "Songti SC", "Noto Serif SC", Georgia, serif;
      fill: #1f2c37;
      font-weight: 700;
      letter-spacing: 0;
    }

    .caption {
      font-size: 18px;
      font-weight: 800;
      fill: #0f665f;
    }

    .top-note {
      font-size: 22px;
      font-weight: 700;
      fill: #52626b;
    }

    .section-title {
      font-size: 30px;
      font-weight: 800;
      fill: #26353d;
    }

    .hero-title {
      font-size: 72px;
      line-height: 1.03;
    }

    .event-title {
      font-size: 66px;
      line-height: 1.03;
    }

    .hero-summary {
      font-size: 28px;
      font-weight: 500;
      fill: #5d6d76;
    }

    .meta {
      font-size: 20px;
      font-weight: 700;
      fill: #5f6f76;
    }

    .nav {
      font-size: 18px;
      font-weight: 700;
      fill: #44565d;
    }

    .pill {
      font-size: 19px;
      font-weight: 800;
      fill: #0f665f;
    }

    .button {
      font-size: 20px;
      font-weight: 800;
    }

    .button-dark {
      fill: #fbfdfa;
    }

    .button-light {
      fill: #30444c;
    }

    .body-copy {
      font-size: 24px;
      font-weight: 500;
      fill: #31424a;
    }

    .small {
      font-size: 18px;
      font-weight: 700;
      fill: #56676f;
    }

    .sidebar-head {
      font-size: 19px;
      font-weight: 800;
      fill: #0f665f;
    }
  </style>

  <rect width="1600" height="2860" fill="url(#pageBg)"/>

  <text class="ui section-title" x="120" y="84">文章页 / 活动页完整布局提案</text>
  <text class="ui top-note" x="120" y="122">核心改动：hero 独立一层，sidebar 首屏降权，推荐内容移到正文之后，不再用右侧列表去“填满首屏”。</text>

  <g filter="url(#shadow)">
    <rect x="96" y="160" width="1408" height="1210" rx="38" fill="rgba(255,255,255,0.18)"/>

    <rect x="120" y="188" width="1360" height="78" rx="24" fill="rgba(255,255,255,0.86)" stroke="#dbe6e1"/>
    <ellipse cx="215" cy="226" rx="54" ry="22" fill="#ffffff"/>
    <text class="serif" x="160" y="235" font-size="24">Rebase</text>
    <text class="ui small" x="284" y="235">首页</text>
    <text class="ui small" x="352" y="235">极客日报</text>
    <text class="ui small" x="462" y="235">文章</text>
    <text class="ui small" x="532" y="235">活动</text>
    <rect x="594" y="206" width="92" height="38" rx="19" fill="#eaf4ef"/>
    <text class="ui pill" x="626" y="232">文章页</text>
    <text class="ui small" x="734" y="235">贡献者们</text>
    <text class="ui small" x="860" y="235">关于</text>

    <rect x="120" y="304" width="1360" height="300" rx="32" fill="url(#surface)" stroke="#d7e6e1"/>
    <ellipse cx="1228" cy="416" rx="300" ry="188" fill="url(#glowCool)"/>

    <rect x="164" y="342" width="182" height="42" rx="21" fill="#eaf5f0"/>
    <text class="ui pill" x="204" y="369">文章 hero 提案</text>

    <rect x="1244" y="342" width="180" height="42" rx="21" fill="#f5f7f6"/>
    <text class="ui caption" x="1277" y="369">LONGFORM DISPATCH</text>

    <text class="serif hero-title" x="164" y="470">
      <tspan x="164" dy="0">把 Rebase 做成一个</tspan>
      <tspan x="164" dy="78">持续更新的社区媒体站点</tspan>
    </text>

    <text class="ui hero-summary" x="164" y="574">
      <tspan x="164" dy="0">为什么我们不只想做一个静态官网，而是想把社区日常真正组织成可阅读、可订阅、可回看的公共空间。</tspan>
    </text>

    <rect x="164" y="548" width="0" height="0" fill="none"/>

    <rect x="164" y="612" width="168" height="42" rx="21" fill="#eef4f2"/>
    <text class="ui meta" x="196" y="639">2026年4月5日</text>
    <rect x="346" y="612" width="144" height="42" rx="21" fill="#eef4f2"/>
    <text class="ui meta" x="382" y="639">7 min read</text>
    <rect x="504" y="612" width="102" height="42" rx="21" fill="#eef4f2"/>
    <text class="ui meta" x="542" y="639">Ruix</text>

    <rect x="1202" y="602" width="222" height="52" rx="26" fill="#fbfdfc" stroke="#d9e5df"/>
    <text class="ui button" x="1250" y="635" fill="#30444c">订阅文章 RSS</text>

    <rect x="120" y="644" width="860" height="476" rx="28" fill="rgba(255,255,255,0.9)" stroke="#dce7e2"/>
    <text class="serif" x="156" y="714" font-size="34">重新定义社区站点</text>
    <text class="ui body-copy" x="156" y="776">
      <tspan x="156" dy="0">传统社区官网往往更像公告栏，而不是一个持续更新的信息场。</tspan>
      <tspan x="156" dy="46">Rebase 这次的重点，不是把页面做得更大，而是把内容组织得更容易进入。</tspan>
    </text>

    <text class="serif" x="156" y="896" font-size="32">为什么要重做</text>
    <text class="ui body-copy" x="156" y="948">
      <tspan x="156" dy="0">• 旧结构很难承接持续更新的内容</tspan>
      <tspan x="156" dy="44">• GeekDaily、文章、活动、招聘仍像分散入口</tspan>
      <tspan x="156" dy="44">• 读者很难在一次访问里看见社区最近发生了什么</tspan>
    </text>

    <text class="serif" x="156" y="1092" font-size="32">这一版的重点</text>
    <text class="ui body-copy" x="156" y="1142">
      <tspan x="156" dy="0">我们不再让右侧推荐内容挤进首屏，而是把首屏留给这篇文章本身。</tspan>
    </text>

    <rect x="1010" y="644" width="470" height="476" rx="28" fill="rgba(250,253,251,0.88)" stroke="#d9e6e0"/>
    <rect x="1038" y="676" width="414" height="120" rx="22" fill="rgba(255,255,255,0.76)" stroke="#dce5e0"/>
    <text class="ui sidebar-head" x="1062" y="708">文章标签</text>
    <rect x="1062" y="730" width="126" height="38" rx="19" fill="#eaf4ef"/>
    <text class="ui pill" x="1094" y="755">community</text>
    <rect x="1200" y="730" width="116" height="38" rx="19" fill="#eaf4ef"/>
    <text class="ui pill" x="1237" y="755">product</text>
    <rect x="1328" y="730" width="96" height="38" rx="19" fill="#eaf4ef"/>
    <text class="ui pill" x="1360" y="755">media</text>

    <rect x="1038" y="818" width="414" height="138" rx="22" fill="rgba(255,255,255,0.76)" stroke="#dce5e0"/>
    <text class="ui sidebar-head" x="1062" y="850">继续阅读</text>
    <rect x="1062" y="874" width="366" height="42" rx="16" fill="#ffffff" stroke="#dfe7e2"/>
    <text class="ui small" x="1086" y="900">订阅文章 RSS</text>
    <rect x="1062" y="924" width="366" height="42" rx="16" fill="#ffffff" stroke="#dfe7e2"/>
    <text class="ui small" x="1086" y="950">返回文章列表</text>

    <rect x="1038" y="978" width="414" height="114" rx="22" fill="rgba(255,255,255,0.76)" stroke="#dce5e0"/>
    <text class="ui sidebar-head" x="1062" y="1010">为什么首屏要轻一点</text>
    <text class="ui small" x="1062" y="1046">
      <tspan x="1062" dy="0">右侧只保留辅助信息。</tspan>
      <tspan x="1062" dy="28">推荐内容下移，避免 hero 因为</tspan>
      <tspan x="1062" dy="28">“对比过满”而显得更空。</tspan>
    </text>

    <text class="ui section-title" x="120" y="1190">延伸阅读移到正文之后</text>
    <rect x="120" y="1214" width="430" height="116" rx="24" fill="rgba(255,255,255,0.84)" stroke="#dce7e2"/>
    <text class="ui caption" x="150" y="1250">延伸阅读</text>
    <text class="serif" x="150" y="1294" font-size="22">让社区信息更少一点，但更有组织</text>
    <rect x="570" y="1214" width="430" height="116" rx="24" fill="rgba(255,255,255,0.84)" stroke="#dce7e2"/>
    <text class="ui caption" x="600" y="1250">延伸阅读</text>
    <text class="serif" x="600" y="1294" font-size="22">社区档案不该只留在 issue 和聊天里</text>
    <rect x="1020" y="1214" width="430" height="116" rx="24" fill="rgba(255,255,255,0.84)" stroke="#dce7e2"/>
    <text class="ui caption" x="1050" y="1250">延伸阅读</text>
    <text class="serif" x="1050" y="1294" font-size="22">把内容归档做成产品，不等于把社区做重</text>
  </g>

  <g filter="url(#shadow)">
    <rect x="96" y="1460" width="1408" height="1210" rx="38" fill="rgba(255,255,255,0.18)"/>

    <rect x="120" y="1488" width="1360" height="78" rx="24" fill="rgba(255,255,255,0.86)" stroke="#dbe6e1"/>
    <ellipse cx="215" cy="1526" rx="54" ry="22" fill="#ffffff"/>
    <text class="serif" x="160" y="1535" font-size="24">Rebase</text>
    <text class="ui small" x="284" y="1535">首页</text>
    <text class="ui small" x="352" y="1535">极客日报</text>
    <text class="ui small" x="462" y="1535">文章</text>
    <text class="ui small" x="532" y="1535">活动</text>
    <rect x="594" y="1506" width="92" height="38" rx="19" fill="#eaf4ef"/>
    <text class="ui pill" x="626" y="1532">活动页</text>
    <text class="ui small" x="734" y="1535">贡献者们</text>
    <text class="ui small" x="860" y="1535">关于</text>

    <rect x="120" y="1604" width="1360" height="352" rx="32" fill="url(#surface)" stroke="#d7e6e1"/>
    <ellipse cx="1265" cy="1740" rx="312" ry="192" fill="url(#glowWarm)"/>

    <rect x="164" y="1642" width="182" height="42" rx="21" fill="#eaf5f0"/>
    <text class="ui pill" x="204" y="1669">活动 hero 提案</text>
    <rect x="164" y="1700" width="112" height="40" rx="20" fill="#edf6ef"/>
    <text class="ui caption" x="194" y="1726">即将举办</text>

    <text class="serif" x="164" y="1788" font-size="56">
      <tspan x="164" dy="0">Rebase Beijing Protocol</tspan>
      <tspan x="164" dy="62">Reading Room</tspan>
    </text>

    <text class="ui" x="164" y="1878" font-size="24" font-weight="600" fill="#5d6d76">
      <tspan x="164" dy="0">一起读一篇 protocol research，顺手讨论它如何影响社区的长期内容栏目。</tspan>
    </text>

    <rect x="164" y="1906" width="314" height="42" rx="21" fill="#eef4f2"/>
    <text class="ui meta" x="196" y="1933">2026年4月29日 19:00-21:00</text>
    <rect x="492" y="1906" width="416" height="42" rx="21" fill="#eef4f2"/>
    <text class="ui meta" x="526" y="1933">Beijing · Chaoyang reading room</text>

    <rect x="1192" y="1896" width="110" height="52" rx="26" fill="#23313a"/>
    <text class="ui button button-dark" x="1224" y="1929">报名</text>
    <rect x="1316" y="1896" width="108" height="52" rx="26" fill="#fbfdfa" stroke="#dbe5df"/>
    <text class="ui button button-light" x="1348" y="1929">归档</text>

    <rect x="120" y="1992" width="860" height="476" rx="28" fill="rgba(255,255,255,0.9)" stroke="#dce7e2"/>
    <text class="serif" x="156" y="2062" font-size="34">活动内容</text>
    <text class="ui body-copy" x="156" y="2124">
      <tspan x="156" dy="0">我们会选一篇协议研究文章做阅读和讨论。</tspan>
    </text>

    <text class="serif" x="156" y="2222" font-size="32">适合谁来</text>
    <text class="ui body-copy" x="156" y="2274">
      <tspan x="156" dy="0">• researcher</tspan>
      <tspan x="156" dy="44">• editor</tspan>
      <tspan x="156" dy="44">• 对 protocol design 感兴趣的人</tspan>
    </text>

    <text class="serif" x="156" y="2416" font-size="32">为什么不把相关活动放首屏右侧</text>
    <text class="ui body-copy" x="156" y="2466">
      <tspan x="156" dy="0">活动页的首屏应该先让人判断“要不要来”，而不是立刻被更多链接打断。</tspan>
    </text>

    <rect x="1010" y="1992" width="470" height="476" rx="28" fill="rgba(250,253,251,0.88)" stroke="#d9e6e0"/>
    <rect x="1038" y="2024" width="414" height="176" rx="22" fill="rgba(255,255,255,0.76)" stroke="#dce5e0"/>
    <text class="ui sidebar-head" x="1062" y="2056">报名方式</text>
    <text class="ui small" x="1062" y="2092">
      <tspan x="1062" dy="0">请通过公开链接报名，更多参与方式</tspan>
      <tspan x="1062" dy="28">请查看正文中的活动说明。</tspan>
    </text>
    <rect x="1062" y="2134" width="366" height="44" rx="16" fill="#edf6ef" stroke="#d9e7e0"/>
    <text class="ui pill" x="1134" y="2162">外部报名链接 ↗</text>

    <rect x="1038" y="2222" width="414" height="140" rx="22" fill="rgba(255,255,255,0.76)" stroke="#dce5e0"/>
    <text class="ui sidebar-head" x="1062" y="2254">继续关注</text>
    <rect x="1062" y="2278" width="366" height="42" rx="16" fill="#ffffff" stroke="#dfe7e2"/>
    <text class="ui small" x="1086" y="2304">订阅活动 RSS</text>
    <rect x="1062" y="2328" width="366" height="42" rx="16" fill="#ffffff" stroke="#dfe7e2"/>
    <text class="ui small" x="1086" y="2354">回到活动列表</text>

    <rect x="1038" y="2384" width="414" height="84" rx="22" fill="rgba(255,255,255,0.76)" stroke="#dce5e0"/>
    <text class="ui sidebar-head" x="1062" y="2416">首屏只保留决策信息</text>
    <text class="ui small" x="1062" y="2448">报名、时间、地点先解决“我来不来”的判断。</text>

    <text class="ui section-title" x="120" y="2538">相关活动移到正文之后</text>
    <rect x="120" y="2562" width="430" height="116" rx="24" fill="rgba(255,255,255,0.84)" stroke="#dce7e2"/>
    <text class="ui caption" x="150" y="2598">相关活动</text>
    <text class="serif" x="150" y="2642" font-size="24">Builder Tools Showcase</text>
    <rect x="570" y="2562" width="430" height="116" rx="24" fill="rgba(255,255,255,0.84)" stroke="#dce7e2"/>
    <text class="ui caption" x="600" y="2598">相关活动</text>
    <text class="serif" x="600" y="2642" font-size="24">Open Source Writing Workshop</text>
    <rect x="1020" y="2562" width="430" height="116" rx="24" fill="rgba(255,255,255,0.84)" stroke="#dce7e2"/>
    <text class="ui caption" x="1050" y="2598">相关活动</text>
    <text class="serif" x="1050" y="2642" font-size="24">Media Retrospective</text>
  </g>

  <rect x="120" y="2732" width="1360" height="1" fill="#d5e1dc"/>
  <text class="ui top-note" x="120" y="2784">判断标准：如果你第一眼先看到的是文章 / 活动本身，而不是右侧推荐列表，这个方向就是对的。</text>
</svg>
