<svg xmlns="http://www.w3.org/2000/svg" width="225" height="101" viewBox="3 64 225 101"><path d="M42.936 138.37300000000002Q41.08 139.65300000000002 37.112 140.549Q41.72 141.317 43.64 143.269Q45.56 145.221 45.56 149.061Q45.56 150.21300000000002 45.496 151.30100000000002Q45.496 151.30100000000002 45.496 152.06900000000002Q45.496 154.693 47.032000000000004 154.693Q47.416000000000004 154.693 48.216 154.53300000000002Q49.016 154.37300000000002 49.4 154.37300000000002Q50.808 154.37300000000002 51.672 155.55700000000002Q52.536 156.741 52.536 158.661Q52.536 160.77300000000002 51.288 162.02100000000002Q50.04 163.269 47.992000000000004 163.269Q47.288000000000004 163.269 45.816 163.109Q44.344 162.949 43.64 162.949Q42.872 162.949 41.368 163.109Q39.864000000000004 163.269 39.096000000000004 163.269Q36.728 163.269 35.288 161.317Q33.848 159.365 33.848 156.16500000000002Q33.848 155.845 33.912 155.717L34.04 152.00500000000002Q34.04 152.00500000000002 34.04 151.55700000000002Q34.04 148.229 32.344 146.949Q30.648 145.669 26.232 145.669Q24.44 145.669 23.992 146.62900000000002Q23.672 147.269 23.672 148.997V150.46900000000002Q23.672 154.82100000000003 25.272000000000002 154.82100000000003Q25.72 154.82100000000003 26.648 154.59700000000004Q27.576 154.37300000000002 28.088 154.37300000000002Q29.432000000000002 154.37300000000002 30.36 155.589Q31.288 156.805 31.288 158.597Q31.288 163.269 26.808 163.269Q25.272000000000002 163.269 22.648000000000003 162.949Q20.024 162.62900000000002 18.104 162.62900000000002Q16.056 162.62900000000002 13.368 162.949Q10.68 163.269 8.824 163.269Q4.152 163.269 4.152 158.597Q4.152 156.805 5.144 155.589Q6.136 154.37300000000002 7.6080000000000005 154.37300000000002Q8.184000000000001 154.37300000000002 9.208 154.59700000000004Q10.232 154.82100000000003 10.68 154.82100000000003Q12.408 154.82100000000003 12.408 150.46900000000002V132.741Q12.408 130.693 12.28 130.11700000000002Q11.96 128.453 10.68 128.453Q10.168 128.453 9.176 128.67700000000002Q8.184000000000001 128.901 7.6080000000000005 128.901Q6.136 128.901 5.144 127.685Q4.152 126.46900000000001 4.152 124.67700000000002Q4.152 122.62900000000002 5.4 121.28500000000001Q6.648 119.941 8.632 119.941Q9.016 119.941 9.208 120.00500000000001L13.752 120.453Q15.672 120.64500000000001 17.848 120.64500000000001Q21.624 120.64500000000001 27.384 120.26100000000001Q31.224 120.00500000000001 33.08 120.00500000000001Q39.160000000000004 120.00500000000001 42.712 123.04500000000002Q46.264 126.08500000000001 46.264 131.33300000000003Q46.264 136.133 42.936 138.37300000000002ZM28.408 128.517Q25.848 128.517 25.080000000000002 128.83700000000002Q23.672 129.477 23.672 131.589V135.429Q23.672 136.901 24.152 137.34900000000002Q24.632 137.79700000000003 25.976 137.79700000000003Q34.296 137.79700000000003 34.296 132.869Q34.296 128.517 28.408 128.517Z" fill="#fff"/><path d="M84.92 144.197Q84.92 146.88500000000002 84.24799999999999 147.781Q83.576 148.67700000000002 81.592 148.67700000000002H65.976Q64.824 148.67700000000002 64.536 148.901Q64.248 149.125 64.248 150.02100000000002Q64.248 152.709 65.976 154.501Q67.70400000000001 156.293 70.328 156.293Q73.016 156.293 75.832 153.34900000000002Q77.75200000000001 151.30100000000002 80.056 151.30100000000002Q81.976 151.30100000000002 83.16 152.389Q84.344 153.477 84.344 155.14100000000002Q84.344 158.853 80.28 161.445Q76.21600000000001 164.037 70.392 164.037Q62.776 164.037 58.232 159.42900000000003Q53.688 154.82100000000003 53.688 147.14100000000002Q53.688 139.39700000000002 58.2 134.62900000000002Q62.712 129.86100000000002 70.00800000000001 129.86100000000002Q76.792 129.86100000000002 80.856 133.76500000000001Q84.92 137.669 84.92 144.197ZM64.568 140.997Q64.568 141.381 64.75999999999999 141.637Q64.952 141.893 66.104 141.893H73.272Q74.232 141.893 74.456 141.669Q74.68 141.44500000000002 74.68 140.869Q74.68 139.205 73.208 137.957Q71.736 136.709 69.75200000000001 136.709Q67.19200000000001 136.709 65.592 138.693Q64.568 139.973 64.568 140.997Z" fill="#fff"/><path d="M101.752 122.11700000000002V134.21300000000002Q105.91199999999999 129.86100000000002 111.032 129.86100000000002Q116.664 129.86100000000002 120.152 134.437Q123.64 139.013 123.64 146.437Q123.64 154.437 119.73599999999999 159.23700000000002Q115.832 164.037 109.304 164.037Q102.776 164.037 99.0 158.917Q99.128 159.941 99.128 160.51700000000002Q99.128 163.461 95.608 163.461Q91.96 163.461 91.96 159.74900000000002V130.565Q91.96 127.30100000000002 90.872 127.30100000000002Q90.42399999999999 127.30100000000002 89.72 127.55700000000002Q89.336 127.685 88.696 127.685Q85.624 127.685 85.624 124.16500000000002Q85.624 122.245 86.67999999999999 121.061Q87.73599999999999 119.87700000000001 89.52799999999999 119.87700000000001Q90.36 119.87700000000001 91.96000000000001 120.06900000000002Q93.56 120.26100000000001 94.392 120.26100000000001Q96.312 120.26100000000001 97.78399999999999 120.06900000000002Q99.256 119.87700000000001 99.96 119.87700000000001Q101.752 119.87700000000001 101.752 122.11700000000002ZM107.768 155.90900000000002Q113.336 155.90900000000002 113.336 146.949Q113.336 137.989 107.896 137.989Q105.27199999999999 137.989 103.576 140.517Q101.88 143.04500000000002 101.88 146.88500000000002Q101.88 155.90900000000002 107.768 155.90900000000002Z" fill="#fff"/><path d="M155.896 164.037Q150.648 164.037 148.856 159.81300000000002Q144.376 164.037 138.232 164.037Q133.176 164.037 130.168 161.38100000000003Q127.16 158.72500000000002 127.16 154.30900000000003Q127.16 147.589 132.984 145.60500000000002Q135.48 144.77300000000002 138.744 144.197Q143.288 143.429 144.92000000000002 142.437Q146.552 141.44500000000002 146.552 139.39700000000002Q146.552 137.925 145.30399999999997 136.933Q144.05599999999998 135.941 142.2 135.941Q140.088 135.941 140.088 137.28500000000003Q140.088 137.733 140.152 138.181V138.437Q140.152 140.229 138.648 141.445Q137.144 142.661 134.904 142.661Q132.344 142.661 130.68 141.125Q129.016 139.589 129.016 137.28500000000003Q129.016 133.829 132.664 131.84500000000003Q136.31199999999998 129.86100000000002 142.712 129.86100000000002Q149.624 129.86100000000002 153.016 131.973Q156.664 134.27700000000002 156.664 140.549V153.79700000000003Q156.664 155.845 157.688 155.845Q158.2 155.845 158.648 155.781Q158.84 155.717 159.096 155.717Q160.56799999999998 155.717 161.59199999999998 156.741Q162.61599999999999 157.76500000000001 162.61599999999999 159.23700000000002Q162.61599999999999 161.34900000000002 160.728 162.693Q158.84 164.037 155.896 164.037ZM146.61599999999999 150.341V148.93300000000002Q146.168 149.18900000000002 140.98399999999998 150.53300000000002Q137.464 151.429 137.464 153.28500000000003Q137.464 156.229 140.92 156.229Q146.61599999999999 156.229 146.61599999999999 150.341Z" fill="#fff"/><path d="M177.144 129.86100000000002Q182.072 129.86100000000002 185.464 132.613Q185.72 129.925 188.92000000000002 129.925Q192.184 129.925 192.184 132.229Q192.184 132.997 191.928 133.95700000000002Q191.73600000000002 135.109 191.73600000000002 136.133Q191.73600000000002 136.32500000000002 191.8 137.157Q191.8 137.989 191.8 138.62900000000002V138.88500000000002Q191.8 142.27700000000002 188.40800000000002 142.27700000000002Q185.976 142.27700000000002 184.184 139.84500000000003Q182.008 136.901 178.872 136.901Q175.16 136.901 175.16 139.461Q175.16 140.805 176.376 141.349Q177.592 141.893 182.776 142.78900000000002Q187.0 143.55700000000002 189.01600000000002 144.517Q191.032 145.477 192.312 147.269Q193.912 149.573 193.912 152.645Q193.912 157.50900000000001 190.168 160.77300000000002Q186.424 164.037 180.792 164.037Q175.16 164.037 170.55200000000002 160.453Q170.55200000000002 163.589 167.352 163.589Q163.89600000000002 163.589 163.89600000000002 160.77300000000002Q163.89600000000002 160.133 164.024 158.78900000000002Q164.15200000000002 157.44500000000002 164.15200000000002 156.805Q164.15200000000002 156.229 164.056 155.077Q163.96 153.925 163.96 153.34900000000002Q163.96 150.46900000000002 167.544 150.46900000000002Q169.27200000000002 150.46900000000002 170.168 150.98100000000002Q171.06400000000002 151.49300000000002 172.088 152.965Q173.68800000000002 155.333 175.032 156.06900000000002Q176.376 156.805 179.0 156.805Q183.608 156.805 183.608 153.925Q183.608 151.941 179.89600000000002 151.173L176.184 150.405Q171.64000000000001 149.44500000000002 169.752 148.485Q167.864 147.525 166.776 145.445Q165.68800000000002 143.365 165.68800000000002 140.67700000000002Q165.68800000000002 135.877 168.856 132.86900000000003Q172.024 129.86100000000002 177.144 129.86100000000002Z" fill="#fff"/><path d="M228.28 144.197Q228.28 146.88500000000002 227.608 147.781Q226.93599999999998 148.67700000000002 224.952 148.67700000000002H209.33599999999998Q208.184 148.67700000000002 207.89600000000002 148.901Q207.608 149.125 207.608 150.02100000000002Q207.608 152.709 209.336 154.501Q211.064 156.293 213.688 156.293Q216.376 156.293 219.192 153.34900000000002Q221.112 151.30100000000002 223.416 151.30100000000002Q225.33599999999998 151.30100000000002 226.51999999999998 152.389Q227.704 153.477 227.704 155.14100000000002Q227.704 158.853 223.64 161.445Q219.576 164.037 213.752 164.037Q206.136 164.037 201.59199999999998 159.42900000000003Q197.048 154.82100000000003 197.048 147.14100000000002Q197.048 139.39700000000002 201.56 134.62900000000002Q206.072 129.86100000000002 213.368 129.86100000000002Q220.152 129.86100000000002 224.216 133.76500000000001Q228.28 137.669 228.28 144.197ZM207.928 140.997Q207.928 141.381 208.12 141.637Q208.31199999999998 141.893 209.464 141.893H216.632Q217.59199999999998 141.893 217.81599999999997 141.669Q218.04 141.44500000000002 218.04 140.869Q218.04 139.205 216.56799999999998 137.957Q215.096 136.709 213.112 136.709Q210.552 136.709 208.952 138.693Q207.928 139.973 207.928 140.997Z" fill="#fff"/><path d="M7.57 113.173c61.625-59.51 157.453-60.251 214.039-1.654" stroke="#fff" stroke-width="8" stroke-linecap="round" fill="none"/><path d="M222.159 113.541a1.43 1.43 0 1 1 .448-2.828 1.431 1.431 0 1 1-.448 2.828" fill="#fff"/><path d="M222.159 113.541a1.43 1.43 0 1 1 .448-2.828 1.431 1.431 0 1 1-.448 2.828zm1.749-1.791-5.445-19.37m3.911 21.288-20.445-4.922" stroke="#fff" stroke-width="8" fill="none"/></svg>